<svg width="46" height="46" viewBox="0 0 46 46" fill="none" xmlns="http://www.w3.org/2000/svg">
<path d="M22.0546 23.0148L36.4124 8.6564C37.142 7.92759 37.5059 7.03622 37.5059 5.98238C37.5059 4.92864 37.1419 4.03768 36.4124 3.30898L34.197 1.09285C33.4687 0.364353 32.5772 0 31.5237 0C30.4703 0 29.5793 0.364353 28.8497 1.09285L9.58726 20.326C8.85835 21.0548 8.4939 21.9461 8.4939 23.0001C8.4939 24.054 8.85825 24.9445 9.58726 25.6737L28.8496 44.9068C29.5792 45.6356 30.4701 46 31.5236 46C32.5772 46 33.4685 45.6356 34.1969 44.9068L36.4123 42.6911C37.1419 41.9627 37.5058 41.0764 37.5058 40.032C37.5058 38.9884 37.1418 38.0922 36.4123 37.3438L22.0546 23.0148Z" fill="white"/>
</svg>
