<svg width="46" height="46" viewBox="0 0 46 46" fill="none" xmlns="http://www.w3.org/2000/svg">
<path d="M23.9454 22.9852L9.58755 37.3436C8.85802 38.0724 8.49408 38.9638 8.49408 40.0176C8.49408 41.0714 8.85812 41.9623 9.58755 42.691L11.803 44.9071C12.5313 45.6356 13.4228 46 14.4763 46C15.5297 46 16.4207 45.6356 17.1503 44.9071L36.4127 25.674C37.1416 24.9452 37.5061 24.0539 37.5061 22.9999C37.5061 21.946 37.1418 21.0555 36.4127 20.3263L17.1504 1.09316C16.4208 0.364351 15.5299 -6.11766e-07 14.4764 -6.11766e-07C13.4228 -6.11766e-07 12.5315 0.364351 11.8031 1.09316L9.58766 3.30887C8.85812 4.03727 8.49418 4.92357 8.49418 5.96799C8.49418 7.01159 8.85823 7.90783 9.58766 8.65619L23.9454 22.9852Z" fill="white"/>
</svg>
